<svg id="Capa_1" data-name="Capa 1" xmlns="http://www.w3.org/2000/svg" viewBox="0 0 964 196"><defs><style>.cls-1{fill:#006ac6;}.cls-2{fill:#1e1e1e;}.cls-3{fill:#007849;}</style></defs><title>FelixDev</title><path class="cls-1" d="M.33,19.46q0-8.61,5-13.65T19,.77H58.36q1.23,2.72,2.58,6.52a25.27,25.27,0,0,1,1.35,8.48q0,8.61-3.81,12.29a13.39,13.39,0,0,1-9.71,3.69H39.18V165H58.36q1.23,2.7,2.58,6.52A25.19,25.19,0,0,1,62.29,180q0,8.59-3.81,12.29A13.39,13.39,0,0,1,48.77,196H19q-8.61,0-13.65-5t-5-13.65Z"/><path class="cls-1" d="M71.88,66.42A13.38,13.38,0,0,1,71.26,63q-.12-2-.12-3.69a34.64,34.64,0,0,1,1-8.36,19.13,19.13,0,0,1,3.2-6.88,16.65,16.65,0,0,1,5.78-4.8,19.4,19.4,0,0,1,9-1.84,25.09,25.09,0,0,1,10.21,2.21q5,2.21,12.41,6.39L165.56,76.5Q172,84.87,172,98.63q0,10.34-2.95,16a21.34,21.34,0,0,1-8.6,8.86L92.78,162.81q-12-3.19-16.35-8.73a19,19,0,0,1-4.31-11.93q0-8.6,4.31-13.4t12.66-9l43.27-21.89Z"/><path class="cls-2" d="M190.51,75.49q0-7.39,4.31-11.7t11.7-4.3h56.8a20.56,20.56,0,0,1,2.15,5,22.24,22.24,0,0,1,.95,6.54q0,6.54-2.84,9.29a10.28,10.28,0,0,1-7.49,2.76H219.77v16H258.5a21.09,21.09,0,0,1,2.15,4.91,21.45,21.45,0,0,1,1,6.45c0,4.37-.92,7.46-2.75,9.3a10,10,0,0,1-7.41,2.75H219.77v18.07H264a20.91,20.91,0,0,1,2.15,5,22.36,22.36,0,0,1,.95,6.55q0,6.54-2.84,9.38a10.15,10.15,0,0,1-7.49,2.84H206.52q-7.4,0-11.7-4.31c-2.87-2.86-4.31-6.77-4.31-11.7Z"/><path class="cls-2" d="M347.31,160.35a21.2,21.2,0,0,1-7.49,3.61,37.94,37.94,0,0,1-11.1,1.55,32.22,32.22,0,0,1-12.39-2.15q-5.16-2.15-7.06-5.94-1.89-4-4.64-10.24t-5.77-14q-3-7.74-6.2-16.43t-6.11-17.65q-2.93-8.94-5.5-17.55t-4.48-16.18a22.43,22.43,0,0,1,7-4.39,24.15,24.15,0,0,1,9.73-2,18.57,18.57,0,0,1,10.41,2.67q4,2.67,5.94,9.89,4.65,16.88,9.38,32.28t9.89,32.1h1q4.65-16.18,9.55-35.29t9.38-38A40,40,0,0,1,355.49,60a28.38,28.38,0,0,1,8-1,19.85,19.85,0,0,1,10.84,2.84q4.49,2.84,4.48,9.38a49.31,49.31,0,0,1-1.81,11q-1.8,7.23-4.65,16.26T366,117.32q-3.54,9.81-7.06,18.5t-6.63,15.32A60.43,60.43,0,0,1,347.31,160.35Z"/><path class="cls-3" d="M552.67,14.79A29.34,29.34,0,0,1,555.74,22a33.1,33.1,0,0,1,1.35,9.47q0,9.58-4.05,13.64T542.1,49.21H490.46V77h53.85a24.18,24.18,0,0,1,3.32,7.13A31.93,31.93,0,0,1,549,93.47q0,9.34-4.06,13.4T534,110.93H491v51.88a68.4,68.4,0,0,1-8.48,1.47A90.47,90.47,0,0,1,471,165a51.39,51.39,0,0,1-10-.86,17.75,17.75,0,0,1-7.26-3.07,13.34,13.34,0,0,1-4.42-6.15,29.79,29.79,0,0,1-1.48-10.33v-107q0-10.56,6.15-16.72t16.72-6.14Z"/><path class="cls-2" d="M573.69,75.49q0-7.39,4.3-11.7t11.71-4.3h56.79a20.54,20.54,0,0,1,2.16,5,22.58,22.58,0,0,1,.94,6.54q0,6.54-2.84,9.29a10.28,10.28,0,0,1-7.48,2.76H603v16h38.72a21.08,21.08,0,0,1,2.16,4.91,21.45,21.45,0,0,1,.94,6.45c0,4.37-.92,7.46-2.75,9.3a10,10,0,0,1-7.4,2.75H603v18.07h44.23a20.91,20.91,0,0,1,2.15,5,22.36,22.36,0,0,1,.95,6.55q0,6.54-2.84,9.38a10.13,10.13,0,0,1-7.49,2.84H589.7q-7.41,0-11.71-4.31c-2.87-2.86-4.3-6.77-4.3-11.7Z"/><path class="cls-2" d="M684,164.31q-7.39,0-11.7-4.31c-2.87-2.86-4.3-6.77-4.3-11.7v-89c1.26-.22,3.27-.54,6-.94a55.06,55.06,0,0,1,7.92-.6,36,36,0,0,1,7,.6A12.41,12.41,0,0,1,694,60.52a9.28,9.28,0,0,1,3.09,4.3,21,21,0,0,1,1,7.23v68h39.41a22.6,22.6,0,0,1,2.24,5.08,21.27,21.27,0,0,1,1,6.62q0,6.88-2.92,9.73a10.69,10.69,0,0,1-7.75,2.84Z"/><path class="cls-2" d="M786.42,163.1a45.93,45.93,0,0,1-5.94,1,62.09,62.09,0,0,1-8,.52,35.91,35.91,0,0,1-7-.6,12.41,12.41,0,0,1-5.08-2.15,9.33,9.33,0,0,1-3.1-4.31,20.89,20.89,0,0,1-1-7.22V59.49q1.89-.35,6-1a55.27,55.27,0,0,1,7.92-.6,36,36,0,0,1,7,.6,12.41,12.41,0,0,1,5.08,2.15,9.3,9.3,0,0,1,3.1,4.3,21,21,0,0,1,1,7.23Z"/><path class="cls-2" d="M801.57,72.22A23.78,23.78,0,0,1,804,67.4a20.18,20.18,0,0,1,9.3-7.65,17.54,17.54,0,0,1,6.88-1.3,15.61,15.61,0,0,1,8.78,2.5q3.78,2.49,7.75,8.52L850.1,90l19.8-29.26a18.41,18.41,0,0,1,3.87-1.29,20.91,20.91,0,0,1,4.9-.6q7.92,0,12.4,3.78a11.75,11.75,0,0,1,4.47,9.3,15.34,15.34,0,0,1-2.49,8.61q-2.5,3.78-6.8,9.12l-17.73,21.68,28.05,40.11a17.26,17.26,0,0,1-5.93,10.07q-4.57,3.69-12.31,3.7a14.81,14.81,0,0,1-8.61-2.5q-3.62-2.49-7.4-8.52l-13.94-22-21.69,32.7c-.92.12-1.78.2-2.58.26s-1.61.09-2.41.09q-9.81,0-14.46-4a12.4,12.4,0,0,1-4.64-9.81,16.9,16.9,0,0,1,2.15-8.69,75.32,75.32,0,0,1,6.11-8.7l18.07-23.23Z"/><path class="cls-3" d="M906.21,196q-1.23-2.72-2.58-6.52a25.27,25.27,0,0,1-1.35-8.48q0-8.61,3.81-12.29A13.39,13.39,0,0,1,915.8,165h9.59V31.75H906.21q-1.23-2.7-2.58-6.51a25.29,25.29,0,0,1-1.35-8.49q0-8.6,3.81-12.29A13.39,13.39,0,0,1,915.8.77h29.75q8.61,0,13.65,5t5,13.65V177.31q0,8.61-5,13.65t-13.65,5Z"/></svg>